<?xml version="1.0" encoding="UTF-8"?>
<svg id="Layer_2" xmlns="http://www.w3.org/2000/svg" viewBox="0 0 453.509 461.003">
  <defs>
    <style>
      .cls-1 {
        fill: #fff;
      }

      .cls-2 {
        fill: #c12026;
      }
    </style>
  </defs>
  <g id="_x34_">
    <g>
      <path class="cls-1" d="M227.175,13C109.935,13,14.484,108.291,14.326,225.565c-.051,38.308,10.255,75.97,29.804,108.915l.171.287-.08.324-26.257,107.214,106.082-30.532.297.164c102.603,56.98,232.443,19.86,289.421-82.749,56.98-102.608,19.858-232.443-82.749-289.423-31.537-17.512-67.267-26.766-103.337-26.766h-.503Z"/>
      <path class="cls-1" d="M227.678,13c36.07,0,71.8,9.254,103.337,26.766,102.608,56.98,139.729,186.815,82.749,289.423-38.853,69.968-111.572,109.481-186.444,109.481-34.93,0-70.338-8.606-102.977-26.732l-.297-.164-106.082,30.531,26.257-107.214.08-.324-.171-.287c-19.549-32.945-29.855-70.608-29.804-108.915C14.484,108.291,109.935,13,227.175,13h.503M227.678,0h-.503C102.809,0,1.493,101.18,1.326,225.547c-.052,38.968,9.996,77.306,29.103,111.208l-25.092,102.457-5.337,21.79,21.559-6.205,100.974-29.061c32.28,16.979,68.4,25.933,104.787,25.933,39.659,0,78.806-10.454,113.209-30.232,35.442-20.375,64.696-50.092,84.601-85.937,14.777-26.61,23.895-55.353,27.1-85.431,3.094-29.033.572-58.061-7.495-86.276-8.067-28.215-21.271-54.188-39.244-77.198-18.62-23.838-41.554-43.417-68.164-58.194C303.865,9.821,265.95,0,227.678,0h0Z"/>
    </g>
    <path class="cls-2" d="M227.175,13C109.935,13,14.484,108.291,14.326,225.565c-.051,38.308,10.255,75.97,29.804,108.915l.171.287-.08.324-26.257,107.214,106.082-30.532.297.164c102.603,56.98,232.443,19.86,289.421-82.749,56.98-102.608,19.858-232.443-82.749-289.423-31.537-17.512-67.267-26.766-103.337-26.766h-.503Z"/>
    <g>
      <path class="cls-1" d="M227.8,83.288c-52.265,0-98.214,66.251-98.214,142.93,0,77.242,45.102,141.8,97.932,141.8,50.289,0,98.497-64.275,98.497-141.8s-45.949-142.93-98.214-142.93ZM227.8,363.626c-47.406,0-85.838-60.897-85.838-137.409s38.432-138.538,85.838-138.538,86.158,62.026,86.158,138.538-38.752,137.409-86.158,137.409Z"/>
      <g>
        <path class="cls-1" d="M183.478,121.48c2.399,3.247,5.333,7.559,10.304,8.752,3.529.847,6.401-1.545,10.022-2.823,7.199-2.54,13.722-2.367,19.056-.847,11.895,3.391,20.233,19.128,25.832,29.925,7.904,15.245,13.723,45.909,16.938,53.921,3.967,9.884,13.503,15.588,13.48,15.668-.041.143-8.5,4.182-14.045,17.08-4.691,10.911-8.246,37.53-18.35,56.885-9.458,18.118-18.144,26.849-33.312,26.82-11.407-.022-12.436-4.723-18.35-5.223-5.265-.446-11.375,6.825-12.704,8.328-.172.195-.07-40.582-.07-40.582,0,0,6.836,22.473,16.727,28.584,17.368,10.731,26.29-.743,32.747-15.95,8.752-20.609,14.821-47.637,15.104-75.871.285-28.511-8.252-58.78-14.821-74.459-3.415-8.152-9.318-20.511-20.609-20.467-11.018.042-18.333,8.338-20.89,12.845-2.964,5.222-6.442,15.381-7.058,18.067-.152.661,0-40.653,0-40.653Z"/>
        <path class="cls-1" d="M272.573,331.154c-2.39-3.253-5.311-7.573-10.279-8.78-3.527-.857-6.406,1.527-10.03,2.795-7.206,2.521-13.728,2.329-19.058.793-11.886-3.423-20.179-19.184-25.747-29.997-7.862-15.266-13.594-45.948-16.787-53.969-3.94-9.895-13.46-15.625-13.437-15.705.041-.143,8.511-4.159,14.093-17.04,4.722-10.898,8.351-37.506,18.51-56.834,9.509-18.092,18.219-26.797,33.388-26.726,11.407.054,12.423,4.758,18.336,5.275,5.264.46,11.394-6.793,12.727-8.292.173-.195-.043,40.582-.043,40.582,0,0-6.773-22.492-16.646-28.63-17.338-10.78-26.292.669-32.793,15.858-8.81,20.584-14.955,47.595-15.317,75.828-.365,28.511,8.087,58.803,14.612,74.5,3.392,8.161,9.26,20.537,20.551,20.526,11.019-.012,18.356-8.287,20.927-12.787,2.979-5.215,6.486-15.364,7.109-18.048.153-.66-.114,40.652-.114,40.652Z"/>
      </g>
    </g>
  </g>
</svg>